<svg xmlns="http://www.w3.org/2000/svg" xmlns:xlink="http://www.w3.org/1999/xlink" width="500" zoomAndPan="magnify" viewBox="0 0 375 374.999991" height="500" preserveAspectRatio="xMidYMid meet" version="1.0"><defs><filter x="0%" y="0%" width="100%" height="100%" id="728c6fcad8"><feColorMatrix values="0 0 0 0 1 0 0 0 0 1 0 0 0 0 1 0 0 0 1 0" color-interpolation-filters="sRGB"/></filter><g/><mask id="c2de3b4e16"><g filter="url(#728c6fcad8)"><rect x="-37.5" width="450" fill="#000000" y="-37.499999" height="449.999989" fill-opacity="0.4196"/></g></mask><clipPath id="b0c9bfcc1e"><path d="M 86 25 L 174.242188 25 L 174.242188 124 L 86 124 Z M 86 25 " clip-rule="nonzero"/></clipPath><clipPath id="b0dce94bbc"><path d="M 0 1 L 122 1 L 122 100 L 0 100 Z M 0 1 " clip-rule="nonzero"/></clipPath><clipPath id="ef372d9596"><rect x="0" width="175" y="0" height="127"/></clipPath></defs><rect x="-37.5" width="450" fill="#ffffff" y="-37.499999" height="449.999989" fill-opacity="1"/><rect x="-37.5" width="450" fill="#ffffff" y="-37.499999" height="449.999989" fill-opacity="1"/><rect x="-37.5" width="450" fill="#ffffff" y="-37.499999" height="449.999989" fill-opacity="1"/><g mask="url(#c2de3b4e16)"><g transform="matrix(1, 0, 0, 1, 0, 113)"><g clip-path="url(#ef372d9596)"><g clip-path="url(#b0c9bfcc1e)"><path fill="#f9ad30" d="M 86.972656 69.300781 C 86.972656 45.238281 106.503906 25.734375 130.613281 25.734375 C 154.71875 25.734375 174.25 45.238281 174.25 69.300781 C 174.25 89.589844 160.359375 106.632812 141.558594 111.484375 C 144.101562 116.09375 147.753906 121.175781 152.433594 123.722656 C 152.433594 123.722656 129.613281 125.453125 117.535156 110.875 C 99.820312 105.328125 86.972656 88.8125 86.972656 69.300781 " fill-opacity="1" fill-rule="nonzero"/></g><path fill="#ffffff" d="M 152.34375 57.496094 L 106.328125 57.496094 C 104.65625 57.496094 103.292969 56.144531 103.292969 54.472656 C 103.292969 52.800781 104.65625 51.445312 106.328125 51.445312 L 152.34375 51.445312 C 154.019531 51.445312 155.375 52.800781 155.375 54.472656 C 155.375 56.144531 154.019531 57.496094 152.34375 57.496094 " fill-opacity="1" fill-rule="nonzero"/><path fill="#ffffff" d="M 152.34375 71.960938 L 106.328125 71.960938 C 104.65625 71.960938 103.292969 70.605469 103.292969 68.933594 C 103.292969 67.261719 104.65625 65.910156 106.328125 65.910156 L 152.34375 65.910156 C 154.019531 65.910156 155.375 67.261719 155.375 68.933594 C 155.375 70.605469 154.019531 71.960938 152.34375 71.960938 " fill-opacity="1" fill-rule="nonzero"/><path fill="#ffffff" d="M 152.34375 86.421875 L 106.328125 86.421875 C 104.65625 86.421875 103.292969 85.0625 103.292969 83.390625 C 103.292969 81.726562 104.65625 80.371094 106.328125 80.371094 L 152.34375 80.371094 C 154.019531 80.371094 155.375 81.726562 155.375 83.390625 C 155.375 85.0625 154.019531 86.421875 152.34375 86.421875 " fill-opacity="1" fill-rule="nonzero"/><g clip-path="url(#b0dce94bbc)"><path fill="#f15226" d="M 86.457031 11.109375 C 84.511719 11.109375 82.605469 11.261719 80.75 11.566406 C 75.777344 5.1875 68.015625 1.078125 59.289062 1.078125 C 47.804688 1.078125 37.988281 8.183594 34.007812 18.226562 C 31.816406 17.667969 29.519531 17.363281 27.160156 17.363281 C 12.148438 17.363281 -0.0117188 29.503906 -0.0117188 44.480469 C -0.0117188 59.460938 12.148438 71.609375 27.160156 71.609375 C 27.75 71.609375 28.332031 71.582031 28.917969 71.546875 C 34.035156 78.855469 42.523438 83.640625 52.128906 83.640625 C 55.453125 83.640625 58.640625 83.066406 61.601562 82.015625 C 61.40625 86.390625 60.363281 96.304688 54.945312 99.785156 C 54.945312 99.785156 75.792969 98.667969 83.5 81.257812 C 84.476562 81.339844 85.460938 81.386719 86.457031 81.386719 C 105.894531 81.386719 121.660156 65.652344 121.660156 46.246094 C 121.660156 26.835938 105.894531 11.109375 86.457031 11.109375 " fill-opacity="1" fill-rule="nonzero"/></g><path fill="#ffffff" d="M 44.578125 45.929688 C 44.578125 49.457031 41.710938 52.320312 38.171875 52.320312 C 34.636719 52.320312 31.769531 49.457031 31.769531 45.929688 C 31.769531 42.398438 34.636719 39.535156 38.171875 39.535156 C 41.710938 39.535156 44.578125 42.398438 44.578125 45.929688 " fill-opacity="1" fill-rule="nonzero"/><path fill="#ffffff" d="M 67.222656 45.929688 C 67.222656 49.457031 64.355469 52.320312 60.824219 52.320312 C 57.289062 52.320312 54.421875 49.457031 54.421875 45.929688 C 54.421875 42.398438 57.289062 39.535156 60.824219 39.535156 C 64.355469 39.535156 67.222656 42.398438 67.222656 45.929688 " fill-opacity="1" fill-rule="nonzero"/><path fill="#ffffff" d="M 89.875 45.929688 C 89.875 49.457031 87.007812 52.320312 83.472656 52.320312 C 79.933594 52.320312 77.066406 49.457031 77.066406 45.929688 C 77.066406 42.398438 79.933594 39.535156 83.472656 39.535156 C 87.007812 39.535156 89.875 42.398438 89.875 45.929688 " fill-opacity="1" fill-rule="nonzero"/></g></g></g><g fill="#5e17eb" fill-opacity="1"><g transform="translate(64.221077, 220.972998)"><g><path d="M 32.125 -12.796875 C 32.125 -10.648438 31.757812 -8.734375 31.03125 -7.046875 C 30.300781 -5.367188 29.3125 -3.945312 28.0625 -2.78125 C 26.8125 -1.613281 25.320312 -0.71875 23.59375 -0.09375 C 21.875 0.519531 20.035156 0.828125 18.078125 0.828125 C 15.890625 0.828125 13.910156 0.4375 12.140625 -0.34375 C 10.378906 -1.132812 8.867188 -2.4375 7.609375 -4.25 L 7.609375 0 L 0.96875 0 L 0.96875 -15.21875 L 7.609375 -15.21875 C 7.609375 -13.695312 7.875 -12.351562 8.40625 -11.1875 C 8.945312 -10.019531 9.65625 -9.035156 10.53125 -8.234375 C 11.414062 -7.429688 12.441406 -6.820312 13.609375 -6.40625 C 14.773438 -5.988281 16.015625 -5.78125 17.328125 -5.78125 C 19.546875 -5.78125 21.332031 -6.289062 22.6875 -7.3125 C 24.039062 -8.34375 24.71875 -9.976562 24.71875 -12.21875 C 24.71875 -13.382812 24.507812 -14.382812 24.09375 -15.21875 C 23.675781 -16.050781 23.082031 -16.796875 22.3125 -17.453125 C 21.539062 -18.109375 20.59375 -18.679688 19.46875 -19.171875 C 18.351562 -19.660156 17.082031 -20.175781 15.65625 -20.71875 C 13.957031 -21.289062 12.257812 -21.929688 10.5625 -22.640625 C 8.875 -23.359375 7.363281 -24.242188 6.03125 -25.296875 C 4.695312 -26.347656 3.613281 -27.640625 2.78125 -29.171875 C 1.945312 -30.710938 1.53125 -32.648438 1.53125 -34.984375 C 1.53125 -37.023438 1.90625 -38.8125 2.65625 -40.34375 C 3.40625 -41.882812 4.40625 -43.175781 5.65625 -44.21875 C 6.90625 -45.269531 8.359375 -46.0625 10.015625 -46.59375 C 11.671875 -47.132812 13.429688 -47.40625 15.296875 -47.40625 C 17.429688 -47.40625 19.265625 -46.953125 20.796875 -46.046875 C 22.335938 -45.148438 23.523438 -43.953125 24.359375 -42.453125 L 24.359375 -46.625 L 31.015625 -46.625 L 31.015625 -32.125 L 24.359375 -32.125 C 24.359375 -34.863281 23.640625 -37 22.203125 -38.53125 C 20.765625 -40.070312 18.832031 -40.84375 16.40625 -40.84375 C 14.257812 -40.84375 12.476562 -40.34375 11.0625 -39.34375 C 9.644531 -38.34375 8.9375 -36.9375 8.9375 -35.125 C 8.9375 -34.195312 9.117188 -33.40625 9.484375 -32.75 C 9.859375 -32.09375 10.394531 -31.492188 11.09375 -30.953125 C 11.789062 -30.421875 12.675781 -29.921875 13.75 -29.453125 C 14.820312 -28.992188 16.0625 -28.488281 17.46875 -27.9375 C 19.226562 -27.320312 20.976562 -26.617188 22.71875 -25.828125 C 24.457031 -25.046875 26.015625 -24.082031 27.390625 -22.9375 C 28.773438 -21.789062 29.910156 -20.398438 30.796875 -18.765625 C 31.679688 -17.140625 32.125 -15.148438 32.125 -12.796875 Z M 32.125 -12.796875 "/></g></g></g><g fill="#5e17eb" fill-opacity="1"><g transform="translate(104.163789, 220.972998)"><g><path d="M 34.15625 -16.609375 C 34.15625 -14.015625 33.742188 -11.65625 32.921875 -9.53125 C 32.097656 -7.414062 30.914062 -5.585938 29.375 -4.046875 C 27.84375 -2.515625 26.003906 -1.316406 23.859375 -0.453125 C 21.722656 0.398438 19.332031 0.828125 16.6875 0.828125 C 14.09375 0.828125 11.722656 0.398438 9.578125 -0.453125 C 7.429688 -1.316406 5.585938 -2.515625 4.046875 -4.046875 C 2.515625 -5.585938 1.335938 -7.414062 0.515625 -9.53125 C -0.304688 -11.65625 -0.71875 -14.015625 -0.71875 -16.609375 C -0.71875 -19.140625 -0.304688 -21.484375 0.515625 -23.640625 C 1.335938 -25.796875 2.515625 -27.648438 4.046875 -29.203125 C 5.585938 -30.765625 7.429688 -31.96875 9.578125 -32.8125 C 11.722656 -33.65625 14.09375 -34.078125 16.6875 -34.078125 C 19.332031 -34.078125 21.722656 -33.65625 23.859375 -32.8125 C 26.003906 -31.96875 27.84375 -30.765625 29.375 -29.203125 C 30.914062 -27.648438 32.097656 -25.796875 32.921875 -23.640625 C 33.742188 -21.484375 34.15625 -19.140625 34.15625 -16.609375 Z M 26.796875 -16.609375 C 26.796875 -18.109375 26.5625 -19.53125 26.09375 -20.875 C 25.632812 -22.226562 24.960938 -23.378906 24.078125 -24.328125 C 23.203125 -25.285156 22.132812 -26.039062 20.875 -26.59375 C 19.625 -27.15625 18.226562 -27.4375 16.6875 -27.4375 C 15.113281 -27.4375 13.707031 -27.15625 12.46875 -26.59375 C 11.226562 -26.039062 10.175781 -25.285156 9.3125 -24.328125 C 8.457031 -23.378906 7.796875 -22.226562 7.328125 -20.875 C 6.867188 -19.53125 6.640625 -18.109375 6.640625 -16.609375 C 6.640625 -15.035156 6.867188 -13.601562 7.328125 -12.3125 C 7.796875 -11.03125 8.457031 -9.898438 9.3125 -8.921875 C 10.175781 -7.953125 11.226562 -7.195312 12.46875 -6.65625 C 13.707031 -6.125 15.113281 -5.859375 16.6875 -5.859375 C 18.226562 -5.859375 19.625 -6.125 20.875 -6.65625 C 22.132812 -7.195312 23.203125 -7.953125 24.078125 -8.921875 C 24.960938 -9.898438 25.632812 -11.03125 26.09375 -12.3125 C 26.5625 -13.601562 26.796875 -15.035156 26.796875 -16.609375 Z M 26.796875 -16.609375 "/></g></g></g><g fill="#5e17eb" fill-opacity="1"><g transform="translate(144.106501, 220.972998)"><g><path d="M 33.296875 0 L 25.90625 0 L 25.90625 -22.828125 C 25.90625 -24.398438 25.742188 -25.5625 25.421875 -26.3125 C 25.097656 -27.0625 24.53125 -27.4375 23.71875 -27.4375 C 22.25 -27.4375 21.316406 -26.609375 20.921875 -24.953125 C 20.523438 -23.296875 20.328125 -20.882812 20.328125 -17.71875 L 20.328125 0 L 12.9375 0 L 12.9375 -22.828125 C 12.9375 -24.398438 12.769531 -25.5625 12.4375 -26.3125 C 12.101562 -27.0625 11.519531 -27.4375 10.6875 -27.4375 C 9.226562 -27.4375 8.3125 -26.609375 7.9375 -24.953125 C 7.570312 -23.296875 7.390625 -20.882812 7.390625 -17.71875 L 7.390625 0 L 0 0 L 0 -33.296875 L 7.46875 -33.296875 L 7.46875 -28.46875 C 7.988281 -30.3125 8.757812 -31.707031 9.78125 -32.65625 C 10.8125 -33.601562 12.179688 -34.078125 13.890625 -34.078125 C 15.328125 -34.078125 16.523438 -33.644531 17.484375 -32.78125 C 18.453125 -31.914062 19.113281 -30.71875 19.46875 -29.1875 C 20.300781 -30.851562 21.164062 -32.082031 22.0625 -32.875 C 22.957031 -33.675781 24.332031 -34.078125 26.1875 -34.078125 C 28.476562 -34.078125 30.234375 -33.238281 31.453125 -31.5625 C 32.679688 -29.882812 33.296875 -27.34375 33.296875 -23.9375 Z M 33.296875 0 "/></g></g></g><g fill="#5e17eb" fill-opacity="1"><g transform="translate(184.049214, 220.972998)"><g><path d="M 6.78125 -13.828125 C 7.144531 -11.535156 8.238281 -9.632812 10.0625 -8.125 C 11.882812 -6.613281 14.332031 -5.859375 17.40625 -5.859375 C 19.8125 -5.859375 21.898438 -6.234375 23.671875 -6.984375 C 25.441406 -7.734375 26.972656 -8.726562 28.265625 -9.96875 L 32.046875 -4.75 C 29.898438 -2.601562 27.628906 -1.132812 25.234375 -0.34375 C 22.847656 0.4375 20.238281 0.828125 17.40625 0.828125 C 14.832031 0.828125 12.4375 0.398438 10.21875 -0.453125 C 8 -1.316406 6.078125 -2.515625 4.453125 -4.046875 C 2.835938 -5.585938 1.570312 -7.414062 0.65625 -9.53125 C -0.257812 -11.65625 -0.71875 -14.015625 -0.71875 -16.609375 C -0.71875 -19.140625 -0.296875 -21.46875 0.546875 -23.59375 C 1.398438 -25.726562 2.59375 -27.578125 4.125 -29.140625 C 5.664062 -30.703125 7.503906 -31.914062 9.640625 -32.78125 C 11.785156 -33.644531 14.15625 -34.078125 16.75 -34.078125 C 19.445312 -34.078125 21.890625 -33.617188 24.078125 -32.703125 C 26.273438 -31.785156 28.148438 -30.457031 29.703125 -28.71875 C 31.265625 -26.988281 32.484375 -24.863281 33.359375 -22.34375 C 34.242188 -19.832031 34.6875 -16.992188 34.6875 -13.828125 Z M 26.328125 -20.328125 C 25.953125 -22.472656 24.847656 -24.191406 23.015625 -25.484375 C 21.179688 -26.785156 19.09375 -27.4375 16.75 -27.4375 C 14.414062 -27.4375 12.320312 -26.785156 10.46875 -25.484375 C 8.613281 -24.191406 7.492188 -22.472656 7.109375 -20.328125 Z M 26.328125 -20.328125 "/></g></g></g><g fill="#ff914d" fill-opacity="1"><g transform="translate(225.792923, 229.685202)"><g><path d="M 10.453125 5.644531 C 20.488281 5.644531 24.984375 -1.777344 27.390625 -10.976562 C 27.703125 -12.125 27.808594 -12.960938 27.808594 -13.902344 C 28.226562 -17.769531 27.808594 -21.640625 26.449219 -25.507812 L 25.195312 -28.433594 C 25.402344 -28.433594 25.820312 -28.539062 26.34375 -28.644531 L 34.914062 -30.839844 L 35.542969 -31.152344 C 35.648438 -31.257812 35.855469 -31.78125 35.542969 -31.882812 C 35.230469 -31.988281 35.019531 -32.09375 34.914062 -32.09375 C 34.707031 -32.199219 34.394531 -32.199219 33.976562 -32.199219 C 33.242188 -32.199219 32.511719 -31.988281 31.78125 -31.882812 C 30.628906 -31.570312 29.375 -31.257812 28.121094 -30.941406 C 26.867188 -30.628906 25.613281 -30.210938 24.355469 -29.792969 L 24.042969 -30.105469 C 22.371094 -32.511719 20.175781 -34.394531 17.25 -35.125 L 16.832031 -35.230469 C 16.097656 -35.542969 15.890625 -35.960938 16.308594 -36.484375 L 17.144531 -37.425781 C 22.265625 -43.277344 26.867188 -51.851562 28.539062 -59.480469 C 28.746094 -60.734375 28.851562 -61.886719 28.746094 -62.929688 C 28.644531 -63.769531 28.226562 -64.5 27.597656 -65.023438 C 26.550781 -65.753906 25.613281 -66.066406 24.671875 -66.066406 C 23.835938 -66.066406 23 -65.753906 22.058594 -65.230469 C 21.742188 -65.125 21.222656 -64.707031 20.699219 -64.1875 C 19.863281 -63.246094 19.128906 -62.304688 18.398438 -61.363281 C 14.21875 -54.988281 11.917969 -49.132812 9.410156 -42.023438 L 8.78125 -40.664062 C 8.78125 -40.457031 8.675781 -40.351562 8.46875 -40.351562 C 8.257812 -40.351562 8.152344 -40.457031 8.152344 -40.664062 C 8.152344 -40.980469 8.152344 -41.1875 8.152344 -41.398438 C 8.050781 -41.605469 8.050781 -41.816406 8.050781 -42.128906 C 8.152344 -44.324219 8.050781 -46.414062 7.945312 -48.609375 C 7.839844 -50.699219 7.734375 -52.792969 7.632812 -54.882812 C 7.632812 -55.40625 7.632812 -55.824219 7.527344 -56.136719 C 7.421875 -57.285156 6.796875 -58.019531 5.539062 -58.226562 C 3.972656 -58.226562 3.972656 -56.242188 3.972656 -55.089844 C 3.867188 -54.359375 3.867188 -53.730469 3.867188 -53.105469 C 3.867188 -52.476562 3.867188 -51.851562 3.867188 -51.117188 C 3.761719 -47.460938 3.660156 -40.351562 3.554688 -35.75 C 3.449219 -29.898438 3.34375 -23.9375 3.34375 -18.921875 C 2.300781 -17.980469 1.359375 -16.832031 0.628906 -15.679688 C -0.3125 -14.53125 -0.835938 -13.277344 -1.148438 -11.917969 C -2.195312 -6.898438 -1.148438 -2.40625 1.882812 1.464844 C 3.972656 4.285156 6.796875 5.644531 10.453125 5.644531 Z M 11.082031 4.179688 C 8.257812 4.179688 5.957031 2.40625 4.285156 0.417969 C 1.882812 -2.824219 0.835938 -6.375 1.253906 -10.246094 C 1.671875 -12.230469 2.300781 -13.800781 3.242188 -15.15625 L 3.242188 -12.753906 C 3.34375 -12.441406 3.34375 -12.125 3.34375 -11.917969 C 3.34375 -11.605469 3.34375 -11.289062 3.34375 -10.976562 C 3.449219 -10.453125 3.761719 -10.246094 4.179688 -10.140625 C 4.285156 -10.140625 4.496094 -10.140625 4.703125 -10.140625 C 4.808594 -10.035156 5.019531 -10.035156 5.121094 -10.035156 C 6.480469 -10.035156 7.316406 -10.664062 7.527344 -11.917969 L 8.050781 -17.144531 L 8.050781 -20.488281 C 12.648438 -24.253906 18.292969 -26.449219 21.640625 -27.597656 C 22.265625 -25.925781 22.683594 -24.253906 22.894531 -22.476562 C 23 -21.535156 23.101562 -20.59375 23.207031 -19.757812 C 23.3125 -18.816406 23.3125 -18.085938 23.417969 -17.5625 C 23.519531 -15.15625 23.207031 -13.484375 22.789062 -11.8125 C 21.953125 -7.632812 20.488281 -3.660156 18.085938 0 C 16.414062 2.507812 14.007812 3.761719 11.082031 4.179688 Z M 8.050781 -22.582031 C 8.050781 -23.625 8.050781 -24.566406 8.152344 -25.507812 C 8.152344 -26.449219 8.152344 -27.074219 8.152344 -27.492188 C 8.257812 -29.480469 8.78125 -31.257812 9.304688 -33.242188 C 9.410156 -33.660156 9.722656 -33.765625 10.140625 -33.660156 C 10.453125 -33.554688 10.871094 -33.347656 11.289062 -33.347656 C 11.5 -33.242188 11.8125 -33.242188 12.125 -33.242188 C 12.648438 -33.242188 12.960938 -33.347656 13.171875 -33.453125 C 13.484375 -33.554688 13.902344 -33.660156 14.320312 -33.765625 C 14.636719 -33.765625 15.054688 -33.765625 15.367188 -33.871094 C 18.191406 -33.871094 19.546875 -31.675781 20.699219 -29.480469 C 20.804688 -29.164062 21.011719 -28.957031 21.117188 -28.644531 C 16.515625 -27.074219 11.917969 -24.984375 8.050781 -22.582031 Z M 10.140625 -35.230469 C 9.828125 -35.230469 9.828125 -35.4375 9.929688 -35.75 C 9.929688 -35.855469 9.929688 -36.066406 10.035156 -36.171875 C 10.035156 -36.273438 10.035156 -36.378906 10.035156 -36.484375 C 10.140625 -36.796875 10.246094 -37.109375 10.347656 -37.425781 C 10.347656 -37.632812 10.453125 -37.84375 10.558594 -38.15625 C 12.753906 -44.636719 17.980469 -59.378906 23.625 -63.351562 C 23.730469 -63.453125 23.9375 -63.558594 24.042969 -63.664062 C 24.148438 -63.664062 24.355469 -63.769531 24.460938 -63.871094 C 24.777344 -63.976562 25.089844 -63.871094 25.089844 -63.558594 L 25.089844 -63.035156 C 25.089844 -56.765625 16.515625 -42.753906 12.648438 -37.738281 C 12.335938 -37.320312 12.023438 -36.902344 11.707031 -36.589844 C 11.394531 -36.171875 10.976562 -35.75 10.664062 -35.332031 C 10.558594 -35.230469 10.453125 -35.230469 10.140625 -35.230469 Z M 10.140625 -35.230469 "/></g></g></g><g fill="#ff914d" fill-opacity="1"><g transform="translate(256.211918, 229.685202)"><g><path d="M 15.15625 -12.023438 C 16.308594 -12.023438 17.25 -12.542969 17.769531 -13.484375 C 18.191406 -14.007812 18.503906 -14.425781 18.609375 -14.738281 C 21.222656 -19.652344 23.835938 -24.148438 26.65625 -29.0625 L 27.492188 -30.839844 C 27.808594 -31.570312 27.492188 -31.988281 26.761719 -32.09375 C 26.03125 -32.09375 25.613281 -31.882812 25.296875 -31.359375 C 22.683594 -26.65625 20.070312 -22.058594 17.25 -17.5625 L 16.515625 -16.621094 C 16.414062 -16.621094 16.414062 -16.621094 16.308594 -16.515625 C 15.996094 -16.621094 15.890625 -16.726562 15.890625 -16.832031 L 15.890625 -18.292969 L 16.515625 -23.417969 C 16.832031 -25.613281 17.039062 -27.808594 17.351562 -29.792969 C 17.351562 -30.210938 17.351562 -30.628906 17.351562 -30.941406 C 17.351562 -31.257812 17.351562 -31.675781 17.25 -31.988281 C 17.25 -32.40625 17.039062 -32.71875 16.515625 -32.929688 C 15.996094 -33.242188 15.574219 -33.347656 15.261719 -33.347656 C 14.636719 -33.347656 14.113281 -33.035156 13.589844 -32.300781 C 13.277344 -31.78125 12.859375 -31.257812 12.542969 -30.628906 L 10.035156 -26.132812 C 9.199219 -24.460938 6.375 -18.816406 4.808594 -17.875 C 4.808594 -17.875 4.703125 -17.875 4.601562 -17.875 L 4.496094 -17.980469 C 4.390625 -18.503906 4.285156 -18.816406 4.390625 -19.027344 C 4.496094 -19.964844 4.703125 -20.804688 4.808594 -21.742188 C 4.914062 -22.683594 5.121094 -23.625 5.226562 -24.566406 C 5.4375 -25.714844 5.644531 -26.96875 5.957031 -28.226562 C 6.273438 -29.375 6.480469 -30.628906 6.691406 -31.78125 C 6.796875 -32.09375 6.898438 -32.511719 6.898438 -32.929688 C 6.898438 -33.242188 6.898438 -33.660156 7.003906 -33.976562 C 7.003906 -34.496094 6.691406 -34.914062 6.167969 -35.125 L 5.539062 -35.4375 C 4.808594 -35.4375 4.179688 -35.542969 3.761719 -34.8125 L 2.824219 -32.824219 C 1.046875 -27.910156 0.105469 -23.3125 -0.628906 -18.191406 C -0.730469 -16.832031 -0.730469 -15.785156 -0.417969 -14.84375 C -0.105469 -14.007812 0.417969 -13.484375 0.941406 -13.171875 C 1.566406 -12.753906 2.300781 -12.542969 3.03125 -12.542969 C 3.867188 -12.542969 4.496094 -12.859375 5.019531 -13.378906 L 6.167969 -14.949219 L 9.304688 -19.964844 C 9.617188 -20.488281 9.929688 -21.117188 10.347656 -21.640625 C 10.453125 -21.847656 10.664062 -22.058594 10.765625 -22.371094 C 10.871094 -22.582031 10.976562 -22.683594 11.289062 -22.582031 C 11.394531 -22.476562 11.5 -22.371094 11.5 -22.160156 C 11.5 -21.847656 11.5 -21.640625 11.394531 -21.429688 L 11.289062 -20.699219 C 11.183594 -19.964844 11.082031 -19.339844 11.082031 -18.710938 C 11.082031 -17.980469 11.082031 -17.25 11.082031 -16.515625 C 11.082031 -15.785156 11.289062 -15.054688 11.605469 -14.113281 C 12.335938 -12.753906 13.589844 -12.023438 15.15625 -12.023438 Z M 15.15625 -12.023438 "/></g></g></g><g fill="#ff914d" fill-opacity="1"><g transform="translate(278.58191, 229.685202)"><g><path d="M 15.15625 -5.332031 C 16.515625 -5.332031 17.5625 -5.4375 18.710938 -6.585938 C 19.027344 -6.898438 19.445312 -7.316406 19.757812 -7.632812 C 20.070312 -7.945312 20.386719 -8.363281 20.699219 -8.78125 C 22.058594 -10.664062 23.207031 -12.648438 24.148438 -14.738281 C 25.296875 -17.25 26.34375 -19.757812 27.390625 -22.265625 C 28.433594 -24.777344 29.480469 -27.285156 30.628906 -29.792969 C 30.941406 -30.316406 31.046875 -30.734375 31.152344 -31.257812 C 31.152344 -31.359375 31.152344 -31.570312 31.257812 -31.675781 C 31.257812 -31.78125 31.257812 -31.882812 31.152344 -31.988281 C 31.152344 -32.09375 31.046875 -32.300781 30.839844 -32.511719 C 30.523438 -32.617188 30.316406 -32.71875 30.210938 -32.71875 C 29.6875 -32.71875 29.375 -32.511719 29.0625 -32.09375 L 28.433594 -30.734375 C 26.03125 -24.984375 23.730469 -19.546875 21.117188 -14.113281 C 20.386719 -12.542969 19.546875 -11.289062 18.398438 -9.722656 C 18.292969 -9.410156 18.085938 -9.199219 17.875 -8.988281 C 17.5625 -8.78125 17.351562 -8.570312 17.144531 -8.257812 C 16.933594 -8.050781 16.726562 -7.945312 16.515625 -7.945312 C 15.679688 -7.945312 15.472656 -9.929688 15.472656 -10.664062 C 15.367188 -12.441406 15.261719 -14.320312 15.261719 -16.097656 C 15.261719 -17.875 15.367188 -19.652344 15.574219 -21.429688 C 16.203125 -25.925781 17.457031 -35.332031 19.964844 -37.84375 C 25.402344 -43.59375 33.035156 -52.792969 35.019531 -60.632812 C 35.542969 -63.246094 35.125 -64.8125 31.78125 -65.964844 C 31.359375 -66.066406 31.046875 -66.171875 30.734375 -66.171875 C 27.179688 -66.171875 23.417969 -59.480469 20.90625 -53.835938 C 18.503906 -48.609375 15.261719 -39.410156 14.320312 -36.066406 C 14.21875 -35.75 14.113281 -35.542969 14.113281 -35.332031 C 14.007812 -35.125 13.902344 -34.914062 13.800781 -34.707031 C 13.695312 -34.394531 13.484375 -34.289062 13.277344 -34.289062 C 13.171875 -34.289062 13.066406 -34.289062 12.960938 -34.394531 C 12.648438 -34.496094 12.441406 -34.707031 12.125 -34.914062 C 11.8125 -35.019531 11.605469 -35.230469 11.289062 -35.332031 C 10.246094 -35.648438 9.304688 -35.855469 8.46875 -35.855469 C 2.507812 -35.855469 -0.941406 -28.121094 -1.566406 -22.582031 C -1.671875 -21.535156 -1.566406 -20.488281 -1.253906 -19.445312 C -0.835938 -17.769531 0.210938 -16.726562 1.882812 -16.308594 C 2.507812 -16.097656 3.136719 -15.996094 3.761719 -15.996094 C 5.539062 -15.996094 7.003906 -17.144531 8.152344 -18.503906 C 8.46875 -18.816406 8.78125 -19.234375 9.09375 -19.546875 C 9.304688 -19.863281 9.617188 -20.28125 9.929688 -20.59375 C 10.035156 -20.699219 10.246094 -20.90625 10.347656 -21.222656 C 10.453125 -21.535156 10.664062 -21.535156 10.871094 -21.429688 C 11.183594 -21.324219 11.394531 -21.117188 11.289062 -20.804688 C 11.183594 -20.488281 11.183594 -20.28125 11.183594 -19.964844 C 11.183594 -19.445312 11.183594 -18.921875 11.183594 -18.398438 C 11.183594 -17.875 11.183594 -17.351562 11.082031 -16.832031 C 11.082031 -13.589844 11.183594 -11.5 11.605469 -9.410156 L 12.230469 -7.316406 C 12.859375 -6.0625 13.800781 -5.4375 15.15625 -5.332031 Z M 4.078125 -19.027344 C 3.867188 -19.027344 3.761719 -19.027344 3.660156 -19.128906 C 3.34375 -19.339844 3.242188 -19.757812 3.242188 -20.488281 C 3.554688 -24.148438 6.0625 -34.078125 10.140625 -34.078125 C 10.453125 -33.976562 10.664062 -33.765625 10.765625 -33.660156 C 10.976562 -33.554688 11.082031 -33.453125 11.082031 -33.347656 C 11.289062 -32.511719 11.8125 -31.988281 12.542969 -31.78125 C 12.960938 -31.675781 13.066406 -31.359375 12.960938 -31.046875 C 12.859375 -30.941406 12.859375 -30.839844 12.859375 -30.734375 C 10.871094 -26.65625 8.675781 -23 5.332031 -19.964844 C 5.121094 -19.757812 5.019531 -19.652344 5.019531 -19.652344 C 4.703125 -19.339844 4.390625 -19.027344 4.078125 -19.027344 Z M 20.804688 -42.234375 C 20.699219 -42.335938 20.59375 -42.441406 20.59375 -42.546875 C 21.429688 -47.25 26.34375 -58.332031 29.6875 -62.304688 C 30.210938 -63.035156 30.839844 -63.664062 31.570312 -64.1875 C 31.675781 -64.289062 31.882812 -64.289062 32.09375 -64.289062 C 32.511719 -64.289062 32.824219 -64.082031 32.929688 -63.558594 C 32.929688 -63.351562 32.929688 -63.140625 33.035156 -62.828125 C 32.71875 -60.734375 32.199219 -58.75 31.046875 -56.765625 C 28.644531 -51.746094 25.402344 -47.144531 21.742188 -42.964844 C 21.535156 -42.652344 21.324219 -42.441406 21.011719 -42.234375 Z M 20.804688 -42.234375 "/></g></g></g><g fill="#ff914d" fill-opacity="1"><g transform="translate(304.40147, 229.685202)"><g><path d="M 15.15625 -5.332031 C 16.515625 -5.332031 17.5625 -5.4375 18.710938 -6.585938 C 19.027344 -6.898438 19.445312 -7.316406 19.757812 -7.632812 C 20.070312 -7.945312 20.386719 -8.363281 20.699219 -8.78125 C 22.058594 -10.664062 23.207031 -12.648438 24.148438 -14.738281 C 25.296875 -17.25 26.34375 -19.757812 27.390625 -22.265625 C 28.433594 -24.777344 29.480469 -27.285156 30.628906 -29.792969 C 30.941406 -30.316406 31.046875 -30.734375 31.152344 -31.257812 C 31.152344 -31.359375 31.152344 -31.570312 31.257812 -31.675781 C 31.257812 -31.78125 31.257812 -31.882812 31.152344 -31.988281 C 31.152344 -32.09375 31.046875 -32.300781 30.839844 -32.511719 C 30.523438 -32.617188 30.316406 -32.71875 30.210938 -32.71875 C 29.6875 -32.71875 29.375 -32.511719 29.0625 -32.09375 L 28.433594 -30.734375 C 26.03125 -24.984375 23.730469 -19.546875 21.117188 -14.113281 C 20.386719 -12.542969 19.546875 -11.289062 18.398438 -9.722656 C 18.292969 -9.410156 18.085938 -9.199219 17.875 -8.988281 C 17.5625 -8.78125 17.351562 -8.570312 17.144531 -8.257812 C 16.933594 -8.050781 16.726562 -7.945312 16.515625 -7.945312 C 15.679688 -7.945312 15.472656 -9.929688 15.472656 -10.664062 C 15.367188 -12.441406 15.261719 -14.320312 15.261719 -16.097656 C 15.261719 -17.875 15.367188 -19.652344 15.574219 -21.429688 C 16.203125 -25.925781 17.457031 -35.332031 19.964844 -37.84375 C 25.402344 -43.59375 33.035156 -52.792969 35.019531 -60.632812 C 35.542969 -63.246094 35.125 -64.8125 31.78125 -65.964844 C 31.359375 -66.066406 31.046875 -66.171875 30.734375 -66.171875 C 27.179688 -66.171875 23.417969 -59.480469 20.90625 -53.835938 C 18.503906 -48.609375 15.261719 -39.410156 14.320312 -36.066406 C 14.21875 -35.75 14.113281 -35.542969 14.113281 -35.332031 C 14.007812 -35.125 13.902344 -34.914062 13.800781 -34.707031 C 13.695312 -34.394531 13.484375 -34.289062 13.277344 -34.289062 C 13.171875 -34.289062 13.066406 -34.289062 12.960938 -34.394531 C 12.648438 -34.496094 12.441406 -34.707031 12.125 -34.914062 C 11.8125 -35.019531 11.605469 -35.230469 11.289062 -35.332031 C 10.246094 -35.648438 9.304688 -35.855469 8.46875 -35.855469 C 2.507812 -35.855469 -0.941406 -28.121094 -1.566406 -22.582031 C -1.671875 -21.535156 -1.566406 -20.488281 -1.253906 -19.445312 C -0.835938 -17.769531 0.210938 -16.726562 1.882812 -16.308594 C 2.507812 -16.097656 3.136719 -15.996094 3.761719 -15.996094 C 5.539062 -15.996094 7.003906 -17.144531 8.152344 -18.503906 C 8.46875 -18.816406 8.78125 -19.234375 9.09375 -19.546875 C 9.304688 -19.863281 9.617188 -20.28125 9.929688 -20.59375 C 10.035156 -20.699219 10.246094 -20.90625 10.347656 -21.222656 C 10.453125 -21.535156 10.664062 -21.535156 10.871094 -21.429688 C 11.183594 -21.324219 11.394531 -21.117188 11.289062 -20.804688 C 11.183594 -20.488281 11.183594 -20.28125 11.183594 -19.964844 C 11.183594 -19.445312 11.183594 -18.921875 11.183594 -18.398438 C 11.183594 -17.875 11.183594 -17.351562 11.082031 -16.832031 C 11.082031 -13.589844 11.183594 -11.5 11.605469 -9.410156 L 12.230469 -7.316406 C 12.859375 -6.0625 13.800781 -5.4375 15.15625 -5.332031 Z M 4.078125 -19.027344 C 3.867188 -19.027344 3.761719 -19.027344 3.660156 -19.128906 C 3.34375 -19.339844 3.242188 -19.757812 3.242188 -20.488281 C 3.554688 -24.148438 6.0625 -34.078125 10.140625 -34.078125 C 10.453125 -33.976562 10.664062 -33.765625 10.765625 -33.660156 C 10.976562 -33.554688 11.082031 -33.453125 11.082031 -33.347656 C 11.289062 -32.511719 11.8125 -31.988281 12.542969 -31.78125 C 12.960938 -31.675781 13.066406 -31.359375 12.960938 -31.046875 C 12.859375 -30.941406 12.859375 -30.839844 12.859375 -30.734375 C 10.871094 -26.65625 8.675781 -23 5.332031 -19.964844 C 5.121094 -19.757812 5.019531 -19.652344 5.019531 -19.652344 C 4.703125 -19.339844 4.390625 -19.027344 4.078125 -19.027344 Z M 20.804688 -42.234375 C 20.699219 -42.335938 20.59375 -42.441406 20.59375 -42.546875 C 21.429688 -47.25 26.34375 -58.332031 29.6875 -62.304688 C 30.210938 -63.035156 30.839844 -63.664062 31.570312 -64.1875 C 31.675781 -64.289062 31.882812 -64.289062 32.09375 -64.289062 C 32.511719 -64.289062 32.824219 -64.082031 32.929688 -63.558594 C 32.929688 -63.351562 32.929688 -63.140625 33.035156 -62.828125 C 32.71875 -60.734375 32.199219 -58.75 31.046875 -56.765625 C 28.644531 -51.746094 25.402344 -47.144531 21.742188 -42.964844 C 21.535156 -42.652344 21.324219 -42.441406 21.011719 -42.234375 Z M 20.804688 -42.234375 "/></g></g></g><g fill="#ff914d" fill-opacity="1"><g transform="translate(330.22103, 229.685202)"><g><path d="M 2.925781 8.675781 C 6.585938 8.257812 8.78125 6.0625 10.140625 2.824219 C 13.066406 -3.449219 14.949219 -9.722656 16.097656 -16.515625 C 16.203125 -17.351562 16.515625 -17.980469 17.039062 -18.503906 C 18.816406 -20.488281 20.59375 -22.371094 22.371094 -24.355469 C 24.148438 -26.34375 25.925781 -28.226562 27.808594 -30.003906 L 28.746094 -31.046875 C 29.0625 -31.359375 28.746094 -31.988281 28.433594 -32.09375 C 28.121094 -32.300781 27.808594 -32.40625 27.285156 -32.40625 C 26.761719 -32.40625 26.238281 -32.199219 25.925781 -31.78125 C 23.835938 -29.375 21.742188 -27.179688 19.546875 -24.984375 C 19.027344 -24.460938 18.503906 -23.9375 17.980469 -23.519531 C 17.875 -23.417969 17.667969 -23.417969 17.457031 -23.519531 C 17.457031 -23.519531 17.457031 -23.625 17.351562 -23.730469 L 17.351562 -24.878906 C 17.769531 -28.328125 18.292969 -31.78125 18.816406 -35.125 L 18.816406 -36.902344 L 18.503906 -37.527344 C 18.085938 -38.050781 17.5625 -38.367188 16.832031 -38.367188 C 16.308594 -38.367188 15.890625 -38.15625 15.574219 -37.738281 L 12.753906 -33.976562 C 11.5 -32.199219 10.246094 -30.523438 8.988281 -29.0625 C 8.675781 -28.746094 8.363281 -28.328125 8.050781 -28.015625 C 7.734375 -27.703125 7.316406 -27.285156 7.003906 -26.96875 C 6.691406 -26.867188 6.480469 -26.761719 6.273438 -26.761719 C 6.167969 -26.761719 5.957031 -27.285156 6.0625 -27.597656 C 6.0625 -27.910156 6.167969 -28.328125 6.273438 -28.851562 L 7.214844 -32.09375 C 7.316406 -32.511719 7.421875 -32.929688 7.527344 -33.347656 C 7.632812 -33.765625 7.632812 -34.183594 7.734375 -34.496094 C 7.734375 -34.8125 7.632812 -35.125 7.527344 -35.4375 C 6.796875 -36.171875 6.273438 -36.273438 5.332031 -36.273438 C 5.019531 -36.171875 4.808594 -35.960938 4.703125 -35.855469 C 3.660156 -35.332031 1.566406 -28.328125 1.566406 -26.96875 C 1.148438 -24.355469 2.40625 -23.417969 3.972656 -22.683594 C 4.285156 -22.582031 4.703125 -22.371094 5.121094 -22.265625 C 5.644531 -22.265625 6.0625 -22.371094 6.585938 -22.476562 C 7.316406 -22.789062 7.945312 -23.3125 8.363281 -23.835938 L 11.394531 -27.390625 C 11.707031 -27.808594 12.125 -28.226562 12.441406 -28.746094 C 12.753906 -29.164062 13.066406 -29.585938 13.378906 -30.105469 C 13.695312 -30.421875 13.902344 -30.421875 14.007812 -30.316406 C 14.113281 -30.210938 14.113281 -30.210938 14.113281 -30.105469 C 14.113281 -30.003906 14.113281 -29.792969 14.21875 -29.6875 C 14.21875 -29.585938 14.21875 -29.480469 14.113281 -29.480469 C 13.378906 -25.402344 12.753906 -21.429688 11.917969 -17.351562 C 11.8125 -16.832031 11.605469 -16.414062 11.289062 -16.097656 C 10.976562 -15.574219 10.558594 -15.15625 10.140625 -14.738281 C 8.78125 -13.171875 7.527344 -11.707031 6.167969 -10.140625 C 4.808594 -8.570312 3.554688 -7.003906 2.195312 -5.4375 C 0.628906 -3.761719 -1.253906 -0.730469 -1.984375 1.464844 C -2.507812 3.449219 -2.195312 5.019531 -1.359375 6.691406 C -0.210938 8.257812 0.941406 8.675781 2.925781 8.675781 Z M 1.984375 6.898438 C 1.148438 6.585938 0.941406 5.644531 0.628906 4.914062 C 0.523438 4.601562 0.523438 4.390625 0.523438 4.179688 C 0.523438 3.972656 0.523438 3.867188 0.523438 3.761719 C 0.523438 0.3125 7.214844 -8.886719 10.140625 -10.347656 C 10.453125 -10.347656 10.453125 -10.035156 10.347656 -9.511719 C 10.347656 -9.410156 10.347656 -9.410156 10.246094 -9.304688 C 8.886719 -4.808594 6.585938 3.136719 3.972656 5.75 C 3.242188 6.480469 2.925781 6.898438 1.984375 6.898438 Z M 1.984375 6.898438 "/></g></g></g></svg>